<?xml version="1.0" encoding="UTF-8"?>
<svg width="752px" height="752px" version="1.1" viewBox="0 0 752 752" xmlns="http://www.w3.org/2000/svg">
    <path d="m594.68 426.84c-9.75-19.5-34.125-27.859-53.625-16.715l-35.52 20.195c-13.93-27.859-41.09-47.359-72.43-50.84v-5.5703l21.59-21.59v-0.69531c18.109 2.7852 30.645-2.0898 39-10.445 10.445-10.445 13.93-26.465 9.75-44.574 0-1.3945-1.3945-2.0898-2.7852-2.7852-18.805-4.1797-34.125-0.69531-44.574 9.75-9.0547 9.0547-13.23 22.285-11.145 38.305 0 0-0.69531 0-0.69531 0.69531l-11.84 11.84v-53.625c36.215-2.7852 64.77-33.43 64.77-71.039 0-39-32.035-71.039-71.039-71.039-39 0-71.039 32.035-71.039 71.039 0 36.215 27.859 66.859 63.375 70.34v54.324l-11.84-11.84s-0.69531 0-0.69531-0.69531c2.0898-16.02-1.3945-29.25-10.445-38.305-10.445-10.445-26.465-13.93-44.574-9.75-1.3945 0-2.0898 1.3945-2.7852 2.7852-4.1797 18.805-0.69531 34.125 9.75 44.574 8.3555 8.3555 20.895 13.23 39 10.445v0.69531l21.59 21.59v4.875c-24.375 0.69531-47.359 11.145-64.074 28.555-16.02-17.41-39-27.859-63.375-27.859h-32.734c-2.0898-11.84-11.84-20.195-23.68-20.195h-57.098c-13.234-0.69531-24.375 10.449-24.375 23.68v157.39c0 13.23 11.145 24.375 24.375 24.375h58.5c11.84 0 21.59-9.0547 23.68-20.195l66.859 35.52c39.695 20.895 86.359 17.41 121.18-8.3555l135.11-97.504c15.324-10.445 20.199-30.645 11.84-47.359zm-387.92 105.86c-7.6602 0-13.93-6.2695-13.93-13.93 0-7.6602 6.2695-13.23 13.93-13.23s13.23 6.2695 13.23 13.23c0.003906 8.3594-6.2656 13.93-13.23 13.93zm266.04-311.31c4.1797 0 7.6602 3.4805 7.6602 7.6602 0 4.1797-3.4805 7.6602-7.6602 7.6602-4.1797 0-7.6602-3.4805-7.6602-7.6602-0.003907-4.1758 3.4805-7.6602 7.6602-7.6602zm-90.539 15.324c-4.1797 0-7.6602-3.4805-7.6602-7.6602 0-4.1797 3.4805-7.6602 7.6602-7.6602 4.1797 0 7.6602 3.4805 7.6602 7.6602 0 4.1758-3.4805 7.6602-7.6602 7.6602zm25.07 6.9609c0-2.7852 2.7852-5.5703 5.5703-5.5703s5.5703 2.0898 5.5703 5.5703c0 4.875 4.1797 9.0547 9.0547 9.0547s9.0547-4.1797 9.0547-9.0547-4.1797-9.0547-9.0547-9.0547c-11.145 0-20.195-9.0547-20.195-20.195 0-9.0547 6.2695-16.715 14.625-18.805v-4.875c0-2.7852 2.0898-5.5703 5.5703-5.5703 2.7852 0 5.5703 2.7852 5.5703 5.5703v4.875c8.3555 2.0898 14.625 9.75 14.625 18.805 0 2.7852-2.0898 5.5703-5.5703 5.5703-3.4805 0-5.5703-2.0898-5.5703-5.5703 0-4.875-4.1797-9.0547-9.0547-9.0547s-9.0547 4.1797-9.0547 9.0547 4.1797 9.0547 9.0547 9.0547c11.145 0 19.5 9.0547 19.5 19.5 0 9.0547-6.2695 16.715-14.625 19.5v4.875c0 2.7852-2.7852 5.5703-5.5703 5.5703s-5.5703-2.7852-5.5703-5.5703v-4.875c-7.6602-2.0898-13.93-9.75-13.93-18.805zm167.15 219.38-135.11 97.504c-31.34 22.984-72.43 25.77-106.55 6.9648l-72.434-38.309v-135.8h32.035c22.984 0 44.574 11.145 57.805 29.25l15.32 20.895c1.3945 2.0898 3.4805 2.7852 5.5703 2.7852h53.633c14.625 0 23.68 11.84 23.68 23.68 0 16.715-13.23 29.945-29.945 29.945h-54.324c-4.1797 0-6.9648 3.4805-6.9648 6.9648 0 4.1797 2.7852 6.9648 6.9648 6.9648h54.324c23.68 0 43.18-19.5 43.875-43.18l85.664-48.75c12.535-6.9648 27.859-1.3945 34.125 10.445 4.8711 11.141 2.0859 23.68-7.6641 30.645z"/>
</svg>
